<svg width="105" height="100" viewBox="0 0 105 100" fill="none" xmlns="http://www.w3.org/2000/svg">
<path fill-rule="evenodd" clip-rule="evenodd" d="M8.73022 50C8.73022 26.9881 27.385 8.33331 50.3969 8.33331H54.3651C77.377 8.33331 96.0318 26.9881 96.0318 50C96.0318 64.0692 89.0587 76.5097 78.38 84.0541C76.7222 78.8765 73.4141 74.3209 68.9157 71.0261C64.1671 67.548 58.3551 65.6666 52.381 65.6666C46.407 65.6666 40.5949 67.548 35.8464 71.0261C31.348 74.3209 28.0398 78.8765 26.382 84.0541C15.7033 76.5097 8.73022 64.0692 8.73022 50ZM67.7339 72.6396C72.0605 75.8086 75.1825 80.2245 76.6445 85.2162C70.2009 89.3013 62.5592 91.6666 54.3651 91.6666H50.3969C42.2028 91.6666 34.5612 89.3013 28.1175 85.2162C29.5795 80.2245 32.7015 75.8086 37.0282 72.6396C41.4277 69.4171 46.8242 67.6666 52.381 67.6666C57.9378 67.6666 63.3344 69.4172 67.7339 72.6396ZM40.2858 37.5C40.2858 31.192 45.6567 26 52.381 26C59.1054 26 64.4762 31.192 64.4762 37.5C64.4762 43.8079 59.1054 49 52.381 49C45.6567 49 40.2858 43.8079 40.2858 37.5ZM52.381 24C44.6408 24 38.2858 30.0008 38.2858 37.5C38.2858 44.9992 44.6408 51 52.381 51C60.1213 51 66.4762 44.9992 66.4762 37.5C66.4762 30.0008 60.1213 24 52.381 24Z" fill="#222222"/>
<rect x="9.23022" y="8.83331" width="86.3016" height="82.3333" rx="41.1667" stroke="#222222"/>
</svg>
